<mxfile host="app.diagrams.net" modified="2022-07-19T18:00:07.387Z" agent="5.0 (Windows NT 10.0; Win64; x64) AppleWebKit/537.36 (KHTML, like Gecko) Chrome/103.0.5060.114 Safari/537.36 Edg/103.0.1264.62" etag="-Dj8RFxTHhCemIxZt4iN" version="20.1.1" type="github">
  <diagram id="tMy1eLATrXxZh8AR1VW_" name="第 1 页">
    <mxGraphModel dx="709" dy="380" grid="1" gridSize="10" guides="1" tooltips="1" connect="1" arrows="1" fold="1" page="1" pageScale="1" pageWidth="827" pageHeight="1169" math="0" shadow="0">
      <root>
        <mxCell id="0" />
        <mxCell id="1" parent="0" />
        <mxCell id="P_gL17wc5OoXAgqMZvMp-23" value="" style="rounded=0;whiteSpace=wrap;html=1;fontSize=19;fontColor=#000000;" vertex="1" parent="1">
          <mxGeometry x="100" y="35" width="880" height="550" as="geometry" />
        </mxCell>
        <mxCell id="P_gL17wc5OoXAgqMZvMp-8" value="列表的索引值是从 &lt;font color=&quot;#ff8000&quot;&gt;0&lt;/font&gt; 开始的&amp;nbsp;" style="text;html=1;align=left;verticalAlign=middle;resizable=0;points=[];autosize=1;strokeColor=none;fillColor=none;fontSize=19;" vertex="1" parent="1">
          <mxGeometry x="200" y="70" width="260" height="40" as="geometry" />
        </mxCell>
        <mxCell id="P_gL17wc5OoXAgqMZvMp-9" value="len(列表) &lt;font color=&quot;#000000&quot;&gt;获取列表的 &lt;/font&gt;长度 n + 1&lt;br&gt;&lt;div style=&quot;&quot;&gt;&lt;span style=&quot;background-color: initial;&quot;&gt;列表.count(数据) &lt;font color=&quot;#000000&quot;&gt;数据在列表中出现的次数&lt;/font&gt;&lt;/span&gt;&lt;/div&gt;" style="text;html=1;align=left;verticalAlign=middle;resizable=0;points=[];autosize=1;strokeColor=none;fillColor=none;fontSize=19;fontColor=#FF8000;" vertex="1" parent="1">
          <mxGeometry x="200" y="130" width="380" height="60" as="geometry" />
        </mxCell>
        <mxCell id="P_gL17wc5OoXAgqMZvMp-12" value="" style="group" vertex="1" connectable="0" parent="1">
          <mxGeometry x="200" y="210" width="390" height="140" as="geometry" />
        </mxCell>
        <mxCell id="P_gL17wc5OoXAgqMZvMp-10" value="" style="group" vertex="1" connectable="0" parent="P_gL17wc5OoXAgqMZvMp-12">
          <mxGeometry width="390" height="56" as="geometry" />
        </mxCell>
        <mxCell id="P_gL17wc5OoXAgqMZvMp-1" value="0" style="rounded=0;whiteSpace=wrap;html=1;fontStyle=1;fontSize=19;" vertex="1" parent="P_gL17wc5OoXAgqMZvMp-10">
          <mxGeometry width="55.714285714285715" height="56" as="geometry" />
        </mxCell>
        <mxCell id="P_gL17wc5OoXAgqMZvMp-2" value="1" style="rounded=0;whiteSpace=wrap;html=1;fontStyle=1;fontSize=19;" vertex="1" parent="P_gL17wc5OoXAgqMZvMp-10">
          <mxGeometry x="55.714285714285715" width="55.714285714285715" height="56" as="geometry" />
        </mxCell>
        <mxCell id="P_gL17wc5OoXAgqMZvMp-3" value="2" style="rounded=0;whiteSpace=wrap;html=1;fontStyle=1;fontSize=19;" vertex="1" parent="P_gL17wc5OoXAgqMZvMp-10">
          <mxGeometry x="111.42857142857143" width="55.714285714285715" height="56" as="geometry" />
        </mxCell>
        <mxCell id="P_gL17wc5OoXAgqMZvMp-4" value="3" style="rounded=0;whiteSpace=wrap;html=1;fontStyle=1;fontSize=19;" vertex="1" parent="P_gL17wc5OoXAgqMZvMp-10">
          <mxGeometry x="167.14285714285714" width="55.714285714285715" height="56" as="geometry" />
        </mxCell>
        <mxCell id="P_gL17wc5OoXAgqMZvMp-5" value="4" style="rounded=0;whiteSpace=wrap;html=1;fontStyle=1;fontSize=19;" vertex="1" parent="P_gL17wc5OoXAgqMZvMp-10">
          <mxGeometry x="222.85714285714286" width="55.714285714285715" height="56" as="geometry" />
        </mxCell>
        <mxCell id="P_gL17wc5OoXAgqMZvMp-6" value="..." style="rounded=0;whiteSpace=wrap;html=1;fontStyle=1;fontSize=19;" vertex="1" parent="P_gL17wc5OoXAgqMZvMp-10">
          <mxGeometry x="278.57142857142856" width="55.714285714285715" height="56" as="geometry" />
        </mxCell>
        <mxCell id="P_gL17wc5OoXAgqMZvMp-7" value="n&lt;br style=&quot;font-size: 19px;&quot;&gt;" style="rounded=0;whiteSpace=wrap;html=1;fontStyle=1;fontSize=19;" vertex="1" parent="P_gL17wc5OoXAgqMZvMp-10">
          <mxGeometry x="334.2857142857143" width="55.714285714285715" height="56" as="geometry" />
        </mxCell>
        <mxCell id="P_gL17wc5OoXAgqMZvMp-11" value="" style="endArrow=block;html=1;rounded=0;fontSize=19;fontColor=#000000;entryX=0.5;entryY=1;entryDx=0;entryDy=0;endFill=0;" edge="1" parent="P_gL17wc5OoXAgqMZvMp-12" target="P_gL17wc5OoXAgqMZvMp-1">
          <mxGeometry width="50" height="50" relative="1" as="geometry">
            <mxPoint x="27.857142857142858" y="140" as="sourcePoint" />
            <mxPoint x="-11.142857142857142" y="14" as="targetPoint" />
          </mxGeometry>
        </mxCell>
        <mxCell id="P_gL17wc5OoXAgqMZvMp-18" value="del 列表[索引] &lt;font color=&quot;#000000&quot;&gt;删除指定索引数据&lt;/font&gt;&lt;br&gt;列表.remove[数据] &lt;font color=&quot;#000000&quot;&gt;删除第一个出现的指定数据&lt;/font&gt;&lt;br&gt;列表.pop&lt;font color=&quot;#000000&quot;&gt; 删除末尾数据&lt;/font&gt;&lt;br&gt;列表.pop(索引)&lt;font color=&quot;#000000&quot;&gt; 删除指定索引的数据&lt;/font&gt;" style="text;html=1;align=left;verticalAlign=middle;resizable=0;points=[];autosize=1;strokeColor=none;fillColor=none;fontSize=19;fontColor=#FF8000;" vertex="1" parent="1">
          <mxGeometry x="560" y="360" width="410" height="100" as="geometry" />
        </mxCell>
        <mxCell id="P_gL17wc5OoXAgqMZvMp-19" value="" style="group" vertex="1" connectable="0" parent="1">
          <mxGeometry x="620" y="170" width="310" height="100" as="geometry" />
        </mxCell>
        <mxCell id="P_gL17wc5OoXAgqMZvMp-13" value="&lt;font color=&quot;#ff8000&quot;&gt;列表.sort() &lt;/font&gt;升序排序" style="text;html=1;align=left;verticalAlign=middle;resizable=0;points=[];autosize=1;strokeColor=none;fillColor=none;fontSize=19;fontColor=#000000;" vertex="1" parent="P_gL17wc5OoXAgqMZvMp-19">
          <mxGeometry width="190" height="40" as="geometry" />
        </mxCell>
        <mxCell id="P_gL17wc5OoXAgqMZvMp-14" value="&lt;font color=&quot;#ff8000&quot;&gt;列表.sort(reverse=True) &lt;/font&gt;降序排序" style="text;html=1;align=left;verticalAlign=middle;resizable=0;points=[];autosize=1;strokeColor=none;fillColor=none;fontSize=19;fontColor=#000000;" vertex="1" parent="P_gL17wc5OoXAgqMZvMp-19">
          <mxGeometry y="30" width="310" height="40" as="geometry" />
        </mxCell>
        <mxCell id="P_gL17wc5OoXAgqMZvMp-15" value="&lt;font color=&quot;#ff8000&quot;&gt;列表.reverse() &lt;/font&gt;反转 / 逆序" style="text;html=1;align=left;verticalAlign=middle;resizable=0;points=[];autosize=1;strokeColor=none;fillColor=none;fontSize=19;fontColor=#000000;" vertex="1" parent="P_gL17wc5OoXAgqMZvMp-19">
          <mxGeometry y="60" width="240" height="40" as="geometry" />
        </mxCell>
        <mxCell id="P_gL17wc5OoXAgqMZvMp-20" value="" style="group" vertex="1" connectable="0" parent="1">
          <mxGeometry x="130" y="360" width="400" height="70" as="geometry" />
        </mxCell>
        <mxCell id="P_gL17wc5OoXAgqMZvMp-16" value="&lt;font color=&quot;#ff8000&quot;&gt;列表[索引]&lt;/font&gt; 从列表中取值" style="text;html=1;align=left;verticalAlign=middle;resizable=0;points=[];autosize=1;strokeColor=none;fillColor=none;fontSize=19;fontColor=#000000;" vertex="1" parent="P_gL17wc5OoXAgqMZvMp-20">
          <mxGeometry width="230" height="40" as="geometry" />
        </mxCell>
        <mxCell id="P_gL17wc5OoXAgqMZvMp-17" value="&lt;font color=&quot;#ff8000&quot;&gt;列表.index(数据)&lt;/font&gt;&amp;nbsp;获得数据第一次出现的索引" style="text;html=1;align=left;verticalAlign=middle;resizable=0;points=[];autosize=1;strokeColor=none;fillColor=none;fontSize=19;fontColor=#000000;" vertex="1" parent="P_gL17wc5OoXAgqMZvMp-20">
          <mxGeometry y="30" width="400" height="40" as="geometry" />
        </mxCell>
        <mxCell id="P_gL17wc5OoXAgqMZvMp-21" value="&lt;div style=&quot;text-align: left;&quot;&gt;&lt;span style=&quot;background-color: initial;&quot;&gt;列表.insert(索引, 数据) &lt;font color=&quot;#000000&quot;&gt;在指定位置插入数据&lt;/font&gt;&lt;/span&gt;&lt;/div&gt;&lt;div style=&quot;text-align: left;&quot;&gt;&lt;span style=&quot;background-color: initial;&quot;&gt;列表.append(数据) &lt;font color=&quot;#000000&quot;&gt;在末尾追加数据&lt;/font&gt;&lt;/span&gt;&lt;/div&gt;&lt;div style=&quot;text-align: left;&quot;&gt;&lt;span style=&quot;background-color: initial;&quot;&gt;列表.extend(列表2) &lt;font color=&quot;#000000&quot;&gt;将列表 2 的数据追加到列表 1&lt;/font&gt;&lt;/span&gt;&lt;/div&gt;" style="text;html=1;align=center;verticalAlign=middle;resizable=0;points=[];autosize=1;strokeColor=none;fillColor=none;fontSize=19;fontColor=#FF8000;" vertex="1" parent="1">
          <mxGeometry x="250" y="470" width="440" height="80" as="geometry" />
        </mxCell>
      </root>
    </mxGraphModel>
  </diagram>
</mxfile>
